<?xml version="1.0" standalone="no"?>
<!DOCTYPE svg PUBLIC "-//W3C//DTD SVG 20010904//EN"
 "http://www.w3.org/TR/2001/REC-SVG-20010904/DTD/svg10.dtd">
<svg version="1.0" xmlns="http://www.w3.org/2000/svg"
 width="1963.000000pt" height="1323.000000pt" viewBox="0 0 1963.000000 1323.000000"
 preserveAspectRatio="xMidYMid meet">

<g transform="translate(0.000000,1323.000000) scale(0.100000,-0.100000)"
fill="#000000" stroke="none">
<path d="M0 6615 l0 -6615 9815 0 9815 0 0 6615 0 6615 -9815 0 -9815 0 0
-6615z m14575 1674 c50 -14 120 -84 134 -136 6 -21 21 -340 33 -710 18 -542
19 -679 9 -712 -16 -54 -63 -106 -121 -136 -58 -29 -106 -82 -119 -132 -7 -24
-11 -229 -11 -569 0 -519 0 -531 20 -549 25 -23 76 -24 98 -1 15 15 17 60 22
468 l5 451 27 20 c34 26 73 16 93 -23 13 -25 15 -95 15 -462 0 -238 4 -438 8
-444 23 -35 86 -36 109 -2 4 7 10 215 13 462 l5 449 27 20 c37 28 75 17 94
-28 11 -28 14 -113 14 -464 0 -460 -1 -450 50 -466 32 -10 78 21 85 58 3 17 5
266 3 552 l-3 520 -25 45 c-16 29 -43 57 -75 77 -86 55 -132 101 -149 150 -14
41 -14 99 4 631 11 322 25 603 31 624 22 85 112 149 207 149 67 0 142 -35 278
-131 346 -244 578 -589 668 -991 87 -391 41 -758 -138 -1114 -137 -271 -316
-472 -571 -642 -277 -185 -624 -283 -959 -271 -97 3 -129 8 -161 25 -84 44
-116 105 -122 238 -16 324 -38 1057 -32 1089 9 53 34 83 118 142 94 67 120 92
160 159 53 88 73 170 73 310 0 134 -18 218 -72 349 -64 153 -152 258 -258 309
-57 26 -71 29 -133 25 -55 -4 -80 -12 -125 -39 -142 -85 -263 -309 -295 -546
-33 -251 52 -459 232 -569 71 -43 106 -83 115 -132 10 -50 -24 -927 -37 -975
-23 -83 -111 -147 -204 -147 -64 0 -110 22 -213 99 -315 238 -537 592 -622
991 -28 131 -38 398 -21 533 85 648 516 1169 1138 1376 199 66 472 99 578 70z
m-10322 -727 c125 -30 248 -127 299 -234 50 -105 54 -261 11 -378 -44 -119
-139 -220 -262 -278 l-79 -38 40 -74 c134 -253 318 -620 318 -634 0 -23 -59
-56 -101 -56 -52 0 -37 -24 -251 390 -95 182 -170 324 -174 329 -3 3 -165 4
-205 1 -4 0 -9 -28 -12 -62 -3 -35 -13 -128 -22 -208 -9 -80 -22 -202 -29
-271 -7 -69 -16 -131 -20 -137 -13 -21 -69 -42 -113 -42 l-43 0 0 50 c0 27 4
82 9 122 6 40 17 138 26 218 8 80 20 177 25 215 6 39 15 117 21 175 13 129 34
322 54 500 8 74 18 162 21 195 l6 60 -48 -3 c-27 -2 -53 -8 -58 -13 -19 -17
-64 -10 -80 13 -16 23 -21 73 -10 103 10 24 68 44 148 51 39 4 78 11 86 15 21
12 385 5 443 -9z m5405 6 c25 -25 10 -97 -27 -125 -11 -9 -71 -12 -202 -13
-134 0 -190 -4 -203 -13 -18 -13 -26 -58 -47 -257 -6 -58 -17 -161 -24 -230
-33 -294 -45 -403 -59 -540 -48 -457 -51 -472 -82 -497 -34 -27 -121 -33 -130
-9 -3 8 -1 59 5 113 6 54 15 143 21 198 5 55 14 134 20 175 5 41 17 143 25
225 9 83 20 179 26 215 5 36 14 110 19 165 19 210 39 381 45 408 l7 27 -230 0
c-222 0 -231 1 -245 21 -18 24 -8 80 19 110 16 17 32 19 180 19 98 0 165 4
169 10 10 15 698 13 713 -2z m-3738 -107 c0 -21 -9 -92 -21 -158 -11 -65 -24
-145 -30 -178 -5 -33 -11 -72 -14 -87 l-4 -28 103 0 c85 0 108 -3 126 -18 18
-15 21 -24 16 -50 -4 -17 -16 -43 -27 -57 -20 -24 -25 -25 -129 -25 l-109 0
-10 -52 c-6 -29 -18 -109 -26 -178 -9 -69 -21 -161 -27 -205 -7 -44 -12 -144
-13 -221 0 -126 2 -144 19 -163 29 -32 93 -29 144 9 54 39 74 38 111 -7 38
-46 39 -63 5 -92 -36 -31 -131 -81 -155 -81 -11 0 -30 -5 -41 -11 -36 -19
-155 24 -186 69 -56 79 -70 174 -53 382 13 164 54 487 67 532 5 15 -6 18 -87
20 -108 3 -117 11 -100 75 15 53 49 71 146 75 l70 3 7 50 c12 80 38 226 48
275 5 25 12 64 15 88 8 51 37 71 108 72 l47 0 0 -39z m1444 -21 c-1 -30 -15
-135 -33 -234 -17 -98 -31 -182 -31 -187 0 -5 46 -9 103 -9 84 0 106 -4 126
-19 l25 -19 -18 -46 c-10 -25 -26 -51 -36 -56 -10 -6 -66 -10 -123 -10 l-104
0 -12 -87 c-63 -464 -75 -651 -47 -718 14 -33 18 -35 64 -35 39 0 58 6 90 30
50 36 72 38 99 8 36 -40 46 -67 31 -86 -46 -59 -163 -115 -238 -114 -44 1
-100 14 -100 23 0 5 -6 9 -13 9 -39 0 -91 97 -105 197 -12 88 12 382 54 637
23 145 28 135 -72 138 -103 4 -115 13 -95 77 16 56 52 74 141 69 l68 -3 5 30
c12 81 68 392 73 410 11 37 45 55 99 53 l50 -3 -1 -55z m1041 -460 c-1 -30 -7
-91 -14 -135 -12 -78 -29 -195 -51 -365 -6 -47 -15 -110 -20 -140 -5 -30 -12
-91 -15 -135 -3 -44 -8 -106 -11 -138 -5 -57 -5 -58 17 -47 12 7 35 24 51 38
41 37 62 43 87 26 30 -22 53 -81 41 -104 -27 -51 -145 -110 -218 -110 -68 1
-108 40 -127 127 l-7 33 -48 -53 c-71 -78 -133 -107 -227 -107 -83 0 -102 7
-156 59 -77 73 -116 197 -117 371 0 240 71 463 191 593 75 83 147 119 249 125
71 4 79 2 143 -32 57 -30 67 -33 67 -18 1 42 50 72 115 69 l50 -2 0 -55z
m1794 42 c5 -9 8 -28 6 -42 -2 -14 -11 -77 -20 -140 -9 -63 -20 -140 -26 -170
-32 -184 -80 -640 -68 -654 4 -4 27 10 51 31 23 22 51 43 61 46 24 9 76 -40
83 -80 5 -27 2 -36 -27 -62 -18 -17 -49 -38 -69 -46 -19 -9 -43 -20 -52 -25
-10 -6 -41 -10 -69 -10 -46 0 -56 4 -81 32 -16 18 -34 52 -40 75 -12 50 -24
62 -33 34 -8 -28 -86 -96 -136 -120 -58 -29 -174 -29 -228 -1 -65 33 -111 101
-146 215 -20 69 -20 314 0 415 42 202 121 351 230 429 111 81 227 92 343 33
l62 -32 0 24 c0 36 45 65 102 66 35 0 50 -5 57 -18z m868 0 c7 -4 13 -38 15
-82 l3 -74 53 51 c74 71 143 103 220 103 50 0 63 -3 72 -19 26 -49 -6 -131
-55 -143 -94 -22 -119 -31 -153 -52 -43 -27 -94 -82 -117 -125 -54 -105 -74
-209 -115 -591 -16 -151 -27 -188 -62 -206 -16 -9 -47 -14 -71 -12 l-42 3 1
50 c0 28 8 111 18 185 58 451 65 512 74 708 9 183 15 197 88 205 22 2 44 4 49
5 6 1 15 -2 22 -6z m-5752 -37 c37 -23 55 -44 79 -90 28 -54 31 -69 30 -145
-1 -62 -7 -97 -21 -130 -26 -58 -110 -150 -160 -175 -21 -11 -40 -22 -43 -25
-4 -5 -44 -22 -120 -52 -33 -13 -112 -29 -177 -35 -52 -5 -53 -6 -53 -36 1
-64 19 -159 39 -200 28 -58 64 -77 145 -77 62 0 68 2 107 37 23 21 53 55 66
75 19 31 29 38 56 38 45 0 97 -34 97 -63 0 -53 -129 -199 -189 -213 -14 -4
-30 -10 -36 -14 -27 -20 -127 -26 -195 -13 -61 13 -88 28 -136 79 -82 85 -107
169 -107 354 1 286 91 528 240 644 32 25 65 46 74 46 8 0 19 4 25 9 16 16 47
20 140 18 82 -2 95 -5 139 -32z m1413 19 c52 -21 117 -95 133 -152 20 -67 15
-157 -11 -225 -57 -150 -264 -272 -497 -294 l-53 -5 0 -36 c1 -122 39 -235 89
-262 27 -14 141 -12 171 3 14 7 47 41 74 75 55 69 82 77 137 45 37 -22 43 -43
26 -85 -20 -48 -139 -165 -176 -173 -17 -4 -33 -11 -36 -16 -4 -5 -20 -9 -36
-9 -17 0 -40 -5 -51 -11 -49 -26 -217 36 -263 97 -77 101 -104 236 -87 434 29
329 151 546 343 614 58 20 189 21 237 0z m5273 -3 c135 -60 211 -249 189 -469
-29 -289 -73 -412 -199 -553 -41 -47 -146 -109 -184 -109 -11 0 -36 -5 -54
-12 -27 -10 -38 -10 -53 0 -11 7 -29 12 -40 12 -29 0 -91 37 -126 75 -39 44
-79 126 -93 193 -37 175 14 489 106 649 46 81 123 168 158 179 11 4 22 10 25
14 3 3 23 14 45 23 57 23 171 22 226 -2z m-1489 -853 c74 -35 79 -158 11 -238
-30 -35 -40 -40 -77 -40 -33 0 -49 6 -70 26 -23 23 -26 35 -25 88 1 72 28 131
74 157 37 21 53 23 87 7z"/>
<path d="M3936 7418 c-2 -7 -9 -67 -16 -133 -14 -150 -26 -255 -39 -370 -6
-49 -11 -109 -11 -132 l0 -43 59 0 c33 0 62 4 65 9 3 4 37 11 77 14 39 3 76
10 82 15 7 5 25 12 41 16 36 9 100 53 143 98 86 89 113 262 59 372 -37 76
-133 146 -199 146 -14 0 -29 5 -32 10 -10 15 -225 13 -229 -2z"/>
<path d="M8003 6863 c-18 -2 -33 -8 -33 -14 0 -5 -6 -9 -14 -9 -23 0 -97 -90
-126 -155 -57 -125 -85 -308 -70 -465 15 -159 60 -211 166 -195 112 16 220
212 253 455 6 41 14 104 20 140 5 36 11 92 13 124 l3 60 -41 27 c-41 29 -108
41 -171 32z"/>
<path d="M9801 6863 c-98 -19 -198 -168 -231 -348 -7 -33 -14 -116 -17 -184
-10 -228 43 -327 163 -308 101 17 199 165 241 362 17 83 42 253 50 346 5 64 5
66 -26 92 -47 40 -109 53 -180 40z"/>
<path d="M5096 6860 c-76 -23 -126 -82 -175 -205 -39 -100 -54 -175 -35 -175
7 0 15 4 18 9 3 4 37 11 76 15 38 4 72 11 75 17 4 5 14 9 23 9 22 0 90 36 120
64 62 56 85 188 41 235 -36 39 -82 49 -143 31z"/>
<path d="M6550 6862 c-85 -23 -154 -113 -200 -260 -35 -113 -37 -127 -12 -117
9 4 44 12 77 16 61 9 83 16 165 52 90 39 123 89 124 189 1 60 -2 70 -25 93
-27 28 -83 39 -129 27z"/>
<path d="M11810 6850 c0 -5 -6 -10 -14 -10 -20 0 -80 -65 -109 -119 -66 -120
-107 -347 -92 -506 7 -81 43 -168 75 -185 14 -7 50 -11 91 -8 67 4 70 5 112
49 23 25 57 74 74 110 30 60 38 86 65 199 6 25 11 113 12 195 1 162 -7 203
-51 255 -23 28 -30 30 -94 30 -39 0 -69 -4 -69 -10z"/>
</g>
</svg>
